<svg viewBox="0 0 350 350" xmlns="http://www.w3.org/2000/svg"><g fill="none" fill-rule="evenodd"><path stroke="#FFF" stroke-width=".994" stroke-linecap="round" stroke-linejoin="round" stroke-dasharray="1.985 1.985" d="M31 180.53l141.841 67.285"></path><path stroke="#FFF" stroke-width=".994" stroke-linecap="round" stroke-linejoin="round" stroke-dasharray="1.972 1.972" d="M173.159 246.125L98.792 125.268"></path><path stroke="#FFF" stroke-width=".994" stroke-linecap="round" stroke-linejoin="round" stroke-dasharray="1.985 1.985" d="M319.981 189.402l-143.64 58.413"></path><path stroke="#FFF" stroke-width=".994" stroke-linecap="round" stroke-linejoin="round" stroke-dasharray="1.972 1.972" d="M176.023 246.125l90.582-128.302"></path><path stroke="#FFF" stroke-width=".994" stroke-linecap="round" stroke-linejoin="round" stroke-dasharray="2.006 2.006" d="M174.621 245.707L174.5 86.5"></path><path d="M22.983 179.593l16.401 9.472V208l-16.401-9.471v-18.936zm0-21.013l16.401 9.472v18.943l-16.401-9.472V158.58zm34.616-.008v18.944l-16.41 9.471v-18.943l16.41-9.472zM4.784 148l16.4 9.472v18.943l-16.4-9.472V148zM174.335 28.879a3.95 3.95 0 011.907.404l20.543 9.79a3.907 3.907 0 012.123 2.644l5.07 22.045a3.796 3.796 0 01-.74 3.297l-14.207 17.679a3.997 3.997 0 01-3.072 1.464h-22.8a3.93 3.93 0 01-3.069-1.448L145.875 67.08a4.703 4.703 0 01-.221-.31 3.806 3.806 0 01-.554-3.003l5.036-22.027a3.897 3.897 0 012.123-2.644l20.575-9.814a3.95 3.95 0 011.52-.402zm.207 7.506a1.302 1.302 0 00-1.21 1.235v.478c.034.394.093.783.17 1.17.114.738.155 1.486.123 2.233-.07.245-.21.467-.403.637l-.028.52c-.747.063-1.49.178-2.22.344a15.81 15.81 0 00-8.039 4.588l-.443-.314a.955.955 0 01-.729-.074c-.6-.444-1.154-.945-1.656-1.496a10.246 10.246 0 00-.807-.858l-.273-.218a1.476 1.476 0 00-.855-.323 1.182 1.182 0 00-.98.436 1.303 1.303 0 00.303 1.815l.255.203c.327.218.668.417 1.019.596.653.364 1.27.79 1.842 1.292.146.209.232.455.246.71l.402.368a15.911 15.911 0 00-2.507 11.088l-.517.148a1.688 1.688 0 01-.528.532 11.51 11.51 0 01-2.204.363c-.396.008-.79.04-1.182.093l-.327.074h-.036a1.237 1.237 0 00-.715 2.09c.33.332.818.45 1.263.304h.024l.332-.037c.375-.11.744-.247 1.104-.402.692-.277 1.41-.49 2.145-.628.255.015.499.102.706.25l.553-.093a15.993 15.993 0 007.09 8.867l-.226.47c.104.217.143.457.111.695a11.92 11.92 0 01-1.113 2.016c-.239.315-.46.644-.66.984l-.158.332a1.237 1.237 0 001.2 1.848c.464-.052.858-.36 1.021-.797l.153-.314c.14-.37.259-.746.355-1.126.327-.807.504-1.673.95-2.208a.997.997 0 01.529-.259l.276-.504a15.914 15.914 0 0011.347.028l.245.47a.96.96 0 01.628.38c.347.66.628 1.352.842 2.067.098.382.217.759.358 1.128l.153.314a1.237 1.237 0 002.192.242 1.24 1.24 0 00.03-1.295l-.161-.332a10.31 10.31 0 00-.661-.98 13.068 13.068 0 01-1.108-1.952.96.96 0 01.126-.738 4.228 4.228 0 01-.205-.497 16.015 16.015 0 007.058-8.898l.524.092a.98.98 0 01.688-.255c.733.14 1.452.37 2.146.628.36.166.729.307 1.104.425.088.024.218.044.317.068h.024a1.237 1.237 0 001.553-1.571 1.237 1.237 0 00-1.004-.823l-.359-.085a10.283 10.283 0 00-1.181-.093 11.261 11.261 0 01-2.204-.363 1.388 1.388 0 01-.532-.532l-.499-.148a15.97 15.97 0 00-2.558-11.064l.435-.402a.972.972 0 01.23-.698 11.595 11.595 0 011.827-1.285c.35-.18.691-.378 1.019-.596l.27-.218a1.237 1.237 0 10-1.53-1.922l-.274.218c-.285.27-.555.557-.807.858a11.515 11.515 0 01-1.612 1.52 1.366 1.366 0 01-.745.08l-.468.333a16.129 16.129 0 00-10.218-4.929c0-.185-.024-.462-.028-.548a.97.97 0 01-.402-.613c-.026-.746.021-1.492.14-2.229.08-.387.135-.775.17-1.168v-.37a1.3 1.3 0 00-1.21-1.366l-.016-.009zm-.04 27.999a1.09 1.09 0 01.99.569h.025l3.127 5.643-1.25.37c-2.3.526-4.702.402-6.937-.359l3.138-5.643c.19-.333.541-.536.923-.545l-.016-.035zm5.638-2.612l6.4 1.08c-.923 2.658-2.745 4.929-5.123 6.448l-2.474-5.989a1.09 1.09 0 01.94-1.512l.007-.027c.084-.01.185-.01.25 0zm-11 .027a1.082 1.082 0 01.981 1.511v.024l-2.46 5.94a12.703 12.703 0 01-5.091-6.382l6.345-1.076c.07-.007.142-.007.214 0l.011-.017zm6.39-5.267l1.21 1.536-.44 1.92-1.778.855-1.782-.855-.419-1.92 1.23-1.536h1.979zm-11.853-4.652l4.836 4.316v.028a1.086 1.086 0 01-.427 1.863v.018l-6.207 1.785a12.66 12.66 0 011.603-7.682l.195-.328zm21.697 0a12.89 12.89 0 011.85 7.988l-6.217-1.79v-.024a1.074 1.074 0 01-.77-.804c-.086-.39.043-.793.344-1.06l4.8-4.295-.007-.015zm-9.292-5.958a12.783 12.783 0 017.366 3.552l-5.24 3.724a1.085 1.085 0 01-1.76-.834l-.366-6.442zm-3.08 0l-.369 6.45h-.027c-.019.398-.253.738-.613.93-.36.192-.787.134-1.108-.1l-5.29-3.748a12.665 12.665 0 016.099-3.321c.432-.092.867-.163 1.305-.21h.003z" fill="#FFF" fill-rule="nonzero"></path><path d="M288.251 86.618l.233.178a17.922 17.922 0 014.518 5.196l2.6-1.5a20.997 20.997 0 00-4.082-5.06 16.06 16.06 0 002.077-2.255c2.024-2.637 2.945-5.303 2.066-5.977-.879-.675-3.216.905-5.239 3.542a16.051 16.051 0 00-1.639 2.59 20.902 20.902 0 00-9.664-3.262c.177-.898.279-1.947.279-3.07 0-3.32-.892-6-2-6s-2 2.68-2 6a16 16 0 00.28 3.069 20.861 20.861 0 00-9.665 3.262 16.051 16.051 0 00-1.639-2.59c-2.024-2.637-4.36-4.217-5.239-3.542-.879.674.043 3.34 2.066 5.977.68.886 1.394 1.652 2.077 2.254a21.015 21.015 0 00-4.082 5.06l2.6 1.502a18.008 18.008 0 014.518-5.196l.232-.179A17.957 17.957 0 01277.4 83c4.082 0 7.838 1.345 10.851 3.618zm-25.609 24.716A17.952 17.952 0 00277.4 119a17.952 17.952 0 0014.758-7.666l2.46 1.722a20.997 20.997 0 01-3.097 3.514 16.06 16.06 0 012.077 2.253c2.024 2.637 2.944 5.303 2.066 5.978-.88.674-3.216-.906-5.24-3.543a16.051 16.051 0 01-1.638-2.59 20.902 20.902 0 01-9.664 3.263c.177.897.279 1.946.279 3.069 0 3.32-.892 6-2 6s-2-2.68-2-6c0-1.123.102-2.172.279-3.07a20.861 20.861 0 01-9.664-3.262c-.404.816-.96 1.704-1.639 2.59-2.024 2.637-4.36 4.217-5.239 3.543-.88-.675.042-3.34 2.066-5.978a16.082 16.082 0 012.077-2.253 21.015 21.015 0 01-3.098-3.514l2.459-1.722zM291 109V93.8h4.4l3.2 9.2 3.2-9.2h4V109h-3.6v-4.8l.8-5.6-3.6 9.2h-2l-3.6-9.2.8 5.6v4.8H291zm-12.8-15.2V109h10v-3.2h-6v-12h-4zm-13.2 0V109h10.4v-3.2H269V103h5.2v-3.2H269V97h6v-3.2h-10zM253 109v-6h4.8v6h4V93.8h-4v5.6H253v-5.6h-4V109h4zM83 70c16.569 0 30 13.431 30 30 0 16.569-13.431 30-30 30-16.569 0-30-13.431-30-30 0-16.569 13.431-30 30-30zm7 45H76c0 3.312 3.136 6 7.004 6H83l.247-.004c3.668-.11 6.62-2.638 6.749-5.78L90 115zm4-5H71v4h23v-4zM82.707 78.002h-.015c-1.515.11-3.026 2.802-3.026 5.121 0 2.248-.602 5.914-2.043 7.922-.098-4.335-1.547-7.108-2.903-7.22 1.393 3.584-2.467 8.018-2.467 13.092 0 2.312.894 4.572 2.398 6.352-1.566-.288-2.638-.538-2.638-.538-2.084-.472-5.022-1.13-5.013-1.078l.057.162.117.325c.516 1.415 1.196 2.936 3.362 5.588l.233.272h23.45c3-3.125 3.781-6.37 3.781-6.368l-5.383 1.06s-1.144.282-2.802.596c1.458-1.746 2.322-3.968 2.322-6.328 0-3.512-.85-5.374-2.254-7.831-.869-1.523-2.141-4.69-1.033-7.222-2.511 2.01-3.191 7.832-3.337 11.822-.44-1.921-.367-4.95-.936-6.751-1.517-4.794-3.226-6.724-1.869-8.978l-.001.002z" fill="#FFF"></path><path d="M323.956 184.362h6.215v-5.66h-6.215v5.66zm-7.399 0h6.215v-5.66h-6.215v5.66zm-7.25 0h6.215v-5.66h-6.215v5.66zm-7.251 0h6.067v-5.66h-6.067v5.66zm-7.399 0h6.215v-5.66h-6.215v5.66zm7.399-6.851h6.067v-5.66h-6.067v5.66zm7.25 0h6.216v-5.66h-6.215v5.66zm7.251 0h6.215v-5.66h-6.215v5.66zm0-6.851h6.215V165h-6.215v5.66zM350 181.83s-2.664-2.532-8.139-1.639c-.592-4.319-5.179-6.85-5.179-6.85s-4.291 5.212-1.184 11.02c-.888.448-2.367 1.043-4.587 1.043h-40.693c-.74 2.83-.74 21.596 19.68 21.596 14.65 0 25.6-6.851 30.78-19.362 7.694.596 9.322-5.808 9.322-5.808z" fill="#FFF" fill-rule="nonzero"></path><path fill="#00173D" fill-rule="nonzero" opacity=".15" d="M310.236 401.078a134.441 32.683 0 11-268.882 0 134.441 32.683 0 11268.882 0z"></path><g stroke="#263238" stroke-linecap="round" stroke-linejoin="round" stroke-width=".994"><path d="M175.726 248.252l.895.448-.498-.865"></path><path d="M177.456 248.252l-.895.448.487-.865m-.427.865v-.995"></path></g><path d="M143.48 295.234l-.287 110.627a1.074 1.074 0 00.904 1.183h0c.557-.077.957-.573.915-1.134l2.158-110.547-3.69-.13zm70.01-3.56l.269 96.528a.915.915 0 01-.776.994h0a.905.905 0 01-.765-.994l-1.84-96.448 3.112-.08zm-71.093 0l.269 96.528a.915.915 0 01-.776.994h0a.905.905 0 01-.766-.994l-1.84-96.448 3.113-.08z" stroke="#263238" stroke-width=".994" fill="#FFF" fill-rule="nonzero" stroke-linecap="round" stroke-linejoin="round"></path><path d="M211.492 295.234l.308 110.627a1.074 1.074 0 01-.905 1.183h0a1.074 1.074 0 01-.915-1.134l-2.157-110.547 3.669-.13z" stroke="#263238" stroke-width=".994" fill="#FFF" fill-rule="nonzero" stroke-linecap="round" stroke-linejoin="round"></path><path stroke="#263238" stroke-width=".994" fill="#724102" fill-rule="nonzero" stroke-linecap="round" stroke-linejoin="round" d="M221.246 292.867a44.247 10.112 0 11-88.494 0 44.247 10.112 0 1188.494 0z"></path><path d="M151.644 251.603s-9.446 14.418-9.446 23.367c0 8.949 5.966 16.406 10.44 18.892 4.475 2.485 50.213.497 50.213.497s12.429-7.458 10.938-19.886c-1.243-10.371-9.446-22.372-9.446-22.372l-52.7-.498z" stroke="#263238" stroke-width=".994" fill="#263238" fill-rule="nonzero" stroke-linecap="round" stroke-linejoin="round"></path><path d="M170.039 389.315s-2.486 14.915-6.463 20.88c-3.977 5.967-9.943 4.475-9.446-2.485.497-6.96 6.96-18.395 6.96-18.395h8.949z" stroke="#263238" stroke-width=".994" fill="#FA0303" fill-rule="nonzero" stroke-linecap="round" stroke-linejoin="round"></path><path d="M154.856 403.872c0 2.337.716 4.813 3.34 5.737 3.35 1.184 6.692-3.868 9.089-8.282a114.59 114.59 0 002.784-12.041h-8.95s-4.473 7.954-6.263 14.586z" stroke="#263238" stroke-width=".994" fill="#263238" fill-rule="nonzero" stroke-linecap="round" stroke-linejoin="round"></path><path d="M164.073 266.02s9.446 5.967 11.932 13.424c2.486 7.457-5.47 109.87-5.47 109.87h-8.948s-3.977-41.76-6.96-56.177 1.492-33.807 1.492-36.79c0-2.982-12.926 3.48-13.92-21.377" stroke="#263238" stroke-width=".994" fill="#263238" fill-rule="nonzero" stroke-linecap="round" stroke-linejoin="round"></path><path d="M184.456 389.315s2.486 14.915 6.463 20.88c3.978 5.967 9.944 4.475 9.446-2.485-.497-6.96-6.96-18.395-6.96-18.395h-8.95z" stroke="#263238" stroke-width=".994" fill="#FA0303" fill-rule="nonzero" stroke-linecap="round" stroke-linejoin="round"></path><path d="M195.99 408.993c2.456 0 3.57-1.601 3.978-3.69-1.472-6.9-6.603-15.988-6.603-15.988h-8.948s.835 5.022 2.316 10.4c2.307 4.267 5.728 9.278 9.257 9.278zm-5.538-142.972s-9.446 5.966-11.932 13.423c-2.485 7.457 5.47 109.87 5.47 109.87h8.948s3.977-41.76 6.96-56.177-1.491-33.807-1.491-36.79c0-2.982 14.387 2.983 15.382-21.874" stroke="#263238" stroke-width=".994" fill="#263238" fill-rule="nonzero" stroke-linecap="round" stroke-linejoin="round"></path><path d="M65.268 261.875l-.487 120.54c0 .79.64 1.432 1.432 1.432h0c.77 0 1.4-.613 1.422-1.382l3.44-120.421-5.807-.17zm-8.113 28.178l-.467 124.618a1.422 1.422 0 001.43 1.432h0c.769 0 1.4-.605 1.433-1.372l3.43-124.517-5.826-.16zm234.418-28.178l.488 120.54a1.422 1.422 0 01-1.422 1.432h0a1.432 1.432 0 01-1.432-1.382l-3.43-120.421 5.796-.17zm8.123 28.178l.488 124.617a1.422 1.422 0 01-1.432 1.432h0a1.422 1.422 0 01-1.422-1.372l-3.43-124.517 5.797-.16z" stroke="#263238" stroke-width=".994" fill="#FFF" fill-rule="nonzero" stroke-linecap="round" stroke-linejoin="round"></path><path d="M304.728 283.312l-3.58-3.222-8.272-17.897a4.764 4.764 0 00-4.335-2.695H68.2a4.764 4.764 0 00-4.344 2.695l-10.311 22.362-1.7-.626v5.1l.079-.06a2.824 2.824 0 002.853 2.417h247.176a2.794 2.794 0 002.854-2.635l-.08-5.44z" stroke="#263238" stroke-width=".994" fill="#263238" fill-rule="nonzero" stroke-linecap="round" stroke-linejoin="round"></path><path d="M301.954 286.653H54.778a2.744 2.744 0 01-2.625-3.838l11.704-25.285a4.743 4.743 0 014.345-2.695H288.54a4.743 4.743 0 014.335 2.695l11.713 25.285a2.754 2.754 0 01-2.635 3.838h0z" stroke="#263238" stroke-width=".994" fill="#FFF" fill-rule="nonzero" stroke-linecap="round" stroke-linejoin="round"></path><path d="M173.886 176.92s-7.596 1.353-11.205 3.72c-3.61 2.366-16.635 6.78-18.444 9.823-1.81 3.043-13.016 42.686-13.384 45.739-.368 3.052 3.26 6.095 7.597 6.095 4.335 0 14.467-28.11 14.467-28.11l4.335 14.23-10.172 29.828h61.25l-7.686-30.823 3.977-14.915 13.383 32.812s5.787 5.758 9.397-.676c3.609-6.433-7.955-31.5-9.04-36.58-1.082-5.081-5.418-16.904-8.68-20.662-3.26-3.76-12.647-7.457-18.076-9.486-5.428-2.028-11.931-1.332-17.718-.994z" stroke="#263238" stroke-width=".994" fill="#FABA5E" fill-rule="nonzero" stroke-linecap="round" stroke-linejoin="round"></path><path stroke="#263238" stroke-width=".994" stroke-linecap="round" stroke-linejoin="round" d="M207.773 200.844l-3.152 11.643 4.276-5.448m-60.186-6.752l4.206 13.89-6.453-8.262"></path><path d="M178.59 197.583c10.937.268 14.318-11.475 14.686-19.012l-1.67-.636c-5.42-1.99-11.932-1.352-17.72-.994a51.595 51.595 0 00-8.222 2.217c.398 5.966 2.575 18.166 12.926 18.425z" stroke="#263238" stroke-width=".994" fill="#FFF6FE" fill-rule="nonzero" stroke-linecap="round" stroke-linejoin="round"></path><path stroke="#263238" stroke-width=".994" fill="#FDE3BF" fill-rule="nonzero" stroke-linecap="round" stroke-linejoin="round" d="M178.59 197.583l-23.506 60.285h45.56z"></path><path d="M222.866 239.125s-6.393 1.332-8.53 4.892c-2.138 3.56-4.743 8.88-7.35 11.99l7.588 3.979s8.054-5.966 11.136-8.442a8.84 8.84 0 002.138-11.325" stroke="#263238" stroke-width=".994" fill="#FABA5E" fill-rule="nonzero" stroke-linecap="round" stroke-linejoin="round"></path><path d="M221.445 245.568c-3.61-1.571-6.155-1.163-7.746-.477-1.99 3.49-4.355 8.103-6.712 10.937l7.587 3.977s8.054-5.965 11.136-8.441a8.949 8.949 0 001.174-1.124 11.365 11.365 0 00-5.44-4.872z" stroke="#263238" stroke-width=".994" fill="#FFFAFE" fill-rule="nonzero" stroke-linecap="round" stroke-linejoin="round"></path><path d="M207.693 254.805s-3.32-.447-5.22.666c-1.9 1.114-5.687 5.549-4.504 6.215 1.183.666 3.56-3.55 4.743-3.55 1.294.157 2.568.453 3.798.885l1.183-4.216z" stroke="#263238" stroke-width=".994" fill="#FFF" fill-rule="nonzero" stroke-linecap="round" stroke-linejoin="round"></path><path d="M213.47 254.885s-4.504-1.333-7.11-.895c-2.604.437-6.164 7.557-7.347 9.774-1.183 2.217-.24 2.883.706 2.217.945-.666 4.037-5.548 4.037-5.548l-2.615 6.224c.273.512.905.71 1.422.448.994-.448 4.285-7.12 4.285-7.12l-1.91 6.9c.344.42.904.593 1.423.439.994-.22 3.55-5.767 3.55-5.767s-2.367 6.433-1.66 6.66a2.366 2.366 0 002.376-1.56 50.312 50.312 0 014.743-6.662c1.183-1.292.705-4.007-1.9-5.11z" stroke="#263238" stroke-width=".994" fill="#FFF" fill-rule="nonzero" stroke-linecap="round" stroke-linejoin="round"></path><path stroke="#263238" stroke-width=".994" stroke-linecap="round" stroke-linejoin="round" d="M203.756 260.433l2.187-3.261m.905 2.804l.995-2.486m2.068 4.057l.875-2.596"></path><path d="M159.042 162.255s1.54 3.977-1.233 10.798-1.243 16.903.616 21.875c1.86 4.97 5.24 10.49 6.165 9.257.925-1.233 2.774-15.422 3.082-24.977.309-9.556-.616-16.347-2.774-19.43-2.157-3.081-6.164-1.5-5.856 2.477z" fill="#263238" fill-rule="nonzero"></path><path d="M164.59 204.175s-2.158 5.856-2.158 10.172c0 4.315 5.24 6.78 5.24 6.78s2.775-4.623 1.85-9.246c-.925-4.624-4.932-7.706-4.932-7.706z" fill="#263238" fill-rule="nonzero"></path><path d="M159.906 157.154s-2.266-3.918-4.046-1.9c-1.78 2.02 1.432 6.663 3.212 8.204 1.78 1.54 3.092.596 2.983-1.064-.11-1.66-2.148-5.24-2.148-5.24zm35.985 0s2.257-3.918 4.047-1.9c1.79 2.02-1.432 6.663-3.212 8.204-1.78 1.54-3.102.596-2.983-1.064.12-1.66 2.148-5.24 2.148-5.24z" stroke="#263238" stroke-width=".994" fill="#FFFAFE" fill-rule="nonzero" stroke-linecap="round" stroke-linejoin="round"></path><path d="M183.959 188.266c.935-4.972 1.492-11.723 1.492-11.723s-11.186 1.55-14.915-.587c0 0 1.6 7.17 3.41 12.578" stroke="#263238" stroke-width=".994" fill="#FFF6FE" fill-rule="nonzero" stroke-linecap="round" stroke-linejoin="round"></path><path d="M160.146 158.466s3.092 10.938 8.948 17.37c5.857 6.434 7.955 7.956 11.067 7.488 3.112-.467 6.423-4.514 11.057-12.926 4.633-8.412 4.97-14.914 5.359-15.461.388-.547-.994-12.49-7.616-17.61-6.622-5.12-14.04-7.367-20.463-1.78-6.424 5.589-10.5 14.706-8.352 22.92z" stroke="#263238" stroke-width=".994" fill="#FFF6FE" fill-rule="nonzero" stroke-linecap="round" stroke-linejoin="round"></path><path d="M180.13 164.174a48.492 48.492 0 00-.595 7.02c.119 2.376.835 3.092-.24 3.33-1.073.24-2.296-1.431-2.296-1.431m-.16 4.415h3.372m-4.385-15.432s-2.267-5.598-9.754-2.983m15.988 2.287s1.9-5.47 8.68-2.257" stroke="#263238" stroke-width=".994" stroke-linecap="round" stroke-linejoin="round"></path><path d="M172.206 164.57c0 1.085-.437 1.99-.994 1.99-.557 0-.994-.885-.994-1.99 0-1.102.437-1.987.994-1.987.557 0 .994.895.994 1.989zm14.066.002a1 1.969 0 11-2 0 1 1.969 0 112 0z" fill="#263238" fill-rule="nonzero"></path><path d="M176.66 166.62c0 2.426-2.793 4.395-6.243 4.395s-6.245-1.99-6.245-4.395c0-2.406 2.606-3.46 6.056-3.46s6.433 1.024 6.433 3.46zm15.83 0c0 2.426-2.794 4.395-6.244 4.395-3.45 0-6.254-1.99-6.254-4.395 0-2.406 2.615-3.46 6.065-3.46s6.433 1.024 6.433 3.46zm-16.187-1.611s1.54-.925 3.977.308" stroke="#263238" stroke-width="1.491" stroke-linecap="round" stroke-linejoin="round"></path><path d="M188.265 127.066c-13.453-5.777-22.87 0-22.87 0-.928.51-1.798 1.12-2.595 1.82-4.583 4.126-7.377 11.93-7.02 18.434a23.973 23.973 0 004.525 11.932 27.741 27.741 0 008.083-9.048 75.975 75.975 0 003.978-8.124c0 2.914.377 6.433 1.909 8.949a12.707 12.707 0 0011.156 6.523 10.51 10.51 0 002.336-.23.497.497 0 00.319-.248c3.838.816 7.656.746 8.242-.07.945-1.302 2.287-5.368 2.735-10.34.716-8.432-4.594-15.75-10.798-19.598zM175.1 150.422c-1.93-3.151-1.87-8.292-1.64-11.245l.129-.338a20.244 20.244 0 008.083 15.58 14.567 14.567 0 004.405 2.059c-2.436.159-7.447-.298-10.977-6.056z" fill="#263238" fill-rule="nonzero"></path><path d="M175.269 134.8s-.815 6.027 6.84 11.934c7.657 5.906 14.915 3.58 14.915 3.58m-20.631-17.56s8.063 11.742 19.2 8.68" stroke="#FFF" stroke-width=".5" stroke-linecap="round" stroke-linejoin="round"></path><path d="M132.404 234.979a50.024 50.024 0 00-8.8 3.708c-3.977 2.257-18.275 10.43-22.58 11.743-4.306 1.313-6.722 1.104-8.81 3.28-2.088 2.179-8.72 9.079-9.565 12.072-.845 2.993.477 2.675 1.69 1.86 1.213-.816 4.654-5.14 7.696-5.44 3.043-.297 4.236-.188 4.276 1.443.04 1.63-1.99 7.05-.378 6.582 1.61-.467 2.327-2.983 3.34-5.747 1.015-2.764.896-6.672 1.423-7.676.527-1.005 16.197-3.978 21.169-4.902 4.97-.925 13.423-4.047 15.909-6.105 2.485-2.06 4.245-8.074 4.245-8.074" stroke="#263238" stroke-width=".994" fill="#FABA5E" fill-rule="nonzero" stroke-linecap="round" stroke-linejoin="round"></path><path d="M87.969 263.674s-6.086 4.057-5.32 6.84 6.085 3.809 9.128 2.288c3.042-1.521 5.33-2.535 5.836-6.344.507-3.808-.765-5.32-3.55-5.32-2.783 0-6.094 2.536-6.094 2.536z" stroke="#263238" stroke-width=".994" fill="#263238" fill-rule="nonzero" stroke-linecap="round" stroke-linejoin="round"></path><path d="M121.865 251.9a59.171 59.171 0 008.77-2.603c-1.76-6.095-5.45-8.68-8.611-9.754-5.41 2.883-17.142 9.704-21 10.887-4.315 1.323-6.722 1.104-8.81 3.28-2.088 2.179-8.72 9.079-9.565 12.072-.845 2.993.477 2.675 1.69 1.86 1.213-.816 4.654-5.14 7.696-5.44 3.043-.297 4.236-.188 4.276 1.443.04 1.63-1.99 7.05-.378 6.582 1.61-.467 2.327-2.983 3.34-5.747 1.015-2.764.896-6.672 1.433-7.676.537-1.005 16.187-3.938 21.159-4.902z" stroke="#263238" stroke-width=".994" fill="#FFFAFE" fill-rule="nonzero" stroke-linecap="round" stroke-linejoin="round"></path><path d="M93.179 258.146s-5.19 2.685-6.294 3.977c-1.104 1.293-1.99 6.135-.428 5.877 1.56-.26 3.033-3.76 3.729-4.485a12.469 12.469 0 013.4-1.58" stroke="#263238" stroke-width=".994" fill="#FFF" fill-rule="nonzero" stroke-linecap="round" stroke-linejoin="round"></path><path fill="#ADE4FF" fill-rule="nonzero" opacity=".5" d="M215.648 272.98a39.007 7.298 0 11-78.014 0 39.007 7.298 0 1178.014 0z"></path><path d="M210.706 273.896h-68.16a1.143 1.143 0 01-1.153-1.144h0a1.144 1.144 0 011.153-1.143h68.16a1.134 1.134 0 011.144 1.143h0a1.134 1.134 0 01-1.144 1.144h0z" stroke="#263238" stroke-width=".994" fill="#FFF" fill-rule="nonzero" stroke-linecap="round" stroke-linejoin="round"></path><path d="M211.283 271.629H141.96a.995.995 0 01-.995-.935l-3.768-45.29a.994.994 0 01.994-1.114h76.87a.994.994 0 01.995 1.113l-3.75 45.232a.994.994 0 01-1.023.994z" stroke="#263238" stroke-width=".994" fill="#FFF" fill-rule="nonzero" stroke-linecap="round" stroke-linejoin="round"></path><path d="M212.307 270.635l2.227-26.718c-12.926-.755-28.357 3.42-45.967 14.657-12.975 8.272-22.113 9.475-27.91 8.72l.269 3.34a.994.994 0 00.994.935h69.323a.994.994 0 001.064-.934z" fill="#263238" fill-rule="nonzero"></path><path d="M183.164 248.7c0 2.705-2.933 4.892-6.543 4.892-3.61 0-6.552-2.187-6.552-4.892 0-2.704 2.953-4.912 6.552-4.912 3.6 0 6.543 2.218 6.543 4.912z" fill="#263238" fill-rule="nonzero"></path><path d="M84.677 272.027a55.433 55.433 0 01-8.113 7.358c-4.823 3.55-2.287 8.62-1.99 13.443.299 4.822 4.058 22.053 12.679 23.068 8.62 1.014 6.343-33.22 15.213-36.263 8.869-3.042 29.67 1.273 42.347 1.52 12.678.25 9.387-7.098 9.387-7.098" stroke="#263238" stroke-width=".994" stroke-linecap="round" stroke-linejoin="round"></path><g fill-rule="nonzero"><path fill="#ADE4FF" opacity=".5" d="M280.466 269.282a15.491 7.298 0 11-30.982 0 15.491 7.298 0 1130.982 0z"></path><path d="M253.342 254.328l1.82 14.526c0 2.287 4.722 4.137 10.54 4.137 5.816 0 10.549-1.85 10.549-4.137l1.82-14.526H253.34z" stroke="#263238" stroke-width=".994" fill="#FFF" stroke-linecap="round" stroke-linejoin="round"></path><path stroke="#263238" stroke-width=".994" fill="#FFF" stroke-linecap="round" stroke-linejoin="round" d="M278.06 254.328a12.359 4.842 0 11-24.718 0 12.359 4.842 0 1124.718 0z"></path><path stroke="#263238" stroke-width=".994" fill="#263238" stroke-linecap="round" stroke-linejoin="round" d="M276.24 254.328a10.54 3.709 0 11-21.08 0 10.54 3.709 0 1121.08 0z"></path><path d="M264.727 255.87s-6.503-2.984-7.796-5.51c-1.292-2.525-.288-7.954-.288-7.954a12.35 12.35 0 016.254 5.04 17.997 17.997 0 011.83 8.423z" stroke="#263238" stroke-width=".994" fill="#21AD17" stroke-linecap="round" stroke-linejoin="round"></path><path d="M264.687 255.72s.248-7.955 2.177-11.047c1.93-3.093 8.61-4.753 8.61-4.753s-.645 5.906-3.081 9.635-7.706 6.165-7.706 6.165z" stroke="#263238" stroke-width=".994" fill="#21AD17" stroke-linecap="round" stroke-linejoin="round"></path><path d="M265.582 256.237s-3.73-4.375-3.73-9.387c0-5.01 3.978-8.859 3.978-8.859a19.886 19.886 0 013.34 8.094c.528 4.235-3.59 10.152-3.59 10.152z" stroke="#263238" stroke-width=".994" fill="#21AD17" stroke-linecap="round" stroke-linejoin="round"></path></g></g></svg>